<svg width="162" height="37" viewBox="0 0 162 37" fill="none" xmlns="http://www.w3.org/2000/svg">
<path d="M9.9883 28.0717H17.787C18.1634 28.0717 18.4677 28.3745 18.4677 28.7529V30.9963C16.8608 31.1641 15.2556 31.2801 13.8864 31.2801C12.517 31.2801 10.9121 31.1641 9.30736 30.9983V28.7529C9.30788 28.3747 9.61016 28.0717 9.98856 28.0717L9.9883 28.0717ZM6.63189 22.3729L3.204 23.7481C2.15551 24.3179 1.76229 24.8116 1.38413 25.7037L0.0708635 29.6341C-0.204216 30.8113 0.374178 31.2543 0.902588 31.4172C3.15036 31.9225 9.52419 32.9301 13.8867 32.9301C18.2486 32.9301 24.623 31.9225 26.8709 31.4172C27.3993 31.2538 27.9774 30.8106 27.7026 29.6341L26.3914 25.7037C26.0109 24.8116 25.6203 24.3177 24.5694 23.7481L21.142 22.3729C19.1967 24.135 16.6101 25.0033 13.8871 25.0033C11.1644 25.003 8.57862 24.1345 6.63209 22.3729H6.63189Z" fill="url(#paint0_linear_107_180)"/>
<path fill-rule="evenodd" clip-rule="evenodd" d="M14 9.5C17.7802 9.5 20.7073 11.9396 20.7073 14.9588C20.7073 17.9802 17.6668 20.4127 13.8866 20.4127C12.9374 20.4127 12.0346 20.2581 11.2159 19.9807C8.77249 19.1533 7.06555 17.2213 7.06555 14.9585C7.06555 11.9399 10.2225 9.5 14 9.5ZM13.8866 4.06995C9.04317 4.06995 5.11252 7.13883 4.85259 13.0828C4.0877 13.7278 3.64502 14.6745 3.64502 15.6764C3.64502 17.1484 4.5969 18.4528 5.99796 18.9041C7.54689 21.8546 10.4915 23.3654 13.8868 23.3654C17.2842 23.3654 20.2306 21.8525 21.7777 18.9025C23.1788 18.451 24.1283 17.1489 24.1307 15.6768C24.1307 14.6749 23.6882 13.7256 22.921 13.0788C22.6584 7.1389 18.7302 4.06995 13.8866 4.06995Z" fill="url(#paint1_linear_107_180)"/>
<path fill-rule="evenodd" clip-rule="evenodd" d="M11.1062 28.4794H11.5639C11.7252 28.4794 11.8555 28.6086 11.8555 28.7695V30.4306C11.8555 30.592 11.7252 30.7202 11.5639 30.7202H11.1062C10.9427 30.7202 10.8137 30.5915 10.8137 30.4306V28.7697C10.8137 28.6086 10.9427 28.4794 11.1062 28.4794Z" fill="url(#paint2_linear_107_180)"/>
<path fill-rule="evenodd" clip-rule="evenodd" d="M14.4086 29.7241C14.4086 30.0916 14.1095 30.388 13.7447 30.388C13.3772 30.388 13.0803 30.0914 13.0803 29.7241C13.0803 29.3568 13.3769 29.0602 13.7447 29.0602C14.1097 29.0602 14.4086 29.3562 14.4086 29.7241Z" fill="url(#paint3_linear_107_180)"/>
<path fill-rule="evenodd" clip-rule="evenodd" d="M16.9595 29.7241C16.9595 30.0916 16.6629 30.388 16.2977 30.388C15.9301 30.388 15.6338 30.0914 15.6338 29.7241C15.6338 29.3568 15.9304 29.0602 16.2977 29.0602C16.6629 29.0602 16.9595 29.3562 16.9595 29.7241Z" fill="url(#paint4_linear_107_180)"/>
<path d="M8.42603 14.9584C8.42603 13.6884 9.10219 12.55 10.1813 11.7537C10.439 11.5636 10.7875 11.5763 11.0543 11.7533C11.2865 11.9074 11.426 12.1675 11.426 12.4461V12.5938C11.426 12.8446 11.3355 13.0847 11.2006 13.2962C10.8806 13.7977 10.6974 14.3647 10.6974 14.9692C10.6974 15.54 10.8618 16.0782 11.1508 16.5596C11.3115 16.8273 11.426 17.1252 11.426 17.4374V17.7098C11.426 17.8958 11.3531 18.0744 11.2229 18.2073C11.0019 18.4329 10.6555 18.4897 10.3924 18.3149C9.18954 17.5157 8.42603 16.3133 8.42603 14.9584Z" fill="url(#paint5_linear_107_180)"/>
<path d="M42.1734 32V32.6H42.7734H47.6338H48.2338V32V15.9061L54.5018 28.4117L54.6678 28.7429H55.0382H58.8734H59.2438L59.4097 28.4117L65.6778 15.9061V32V32.6H66.2778H71.1381H71.7381V32V5V4.4H71.1381H65.3665H64.9916L64.8272 4.73695L57.0091 20.7646L49.083 4.73407L48.9178 4.4H48.5451H42.7734H42.1734V5V32ZM78.4665 32V32.6H79.0665H88.1417C91.3217 32.6 93.9871 32.036 96.1022 30.8665L96.1046 30.8652C98.2323 29.6765 99.8149 28.0183 100.833 25.8968C101.867 23.7688 102.373 21.2975 102.373 18.5C102.373 15.7041 101.867 13.2454 100.833 11.142C99.8157 8.99606 98.2333 7.33659 96.1034 6.17267C93.9876 4.97685 91.3216 4.4 88.1417 4.4H79.0665H78.4665V5V32ZM87.9138 27.1571H84.5268V9.80429H87.9138C90.0844 9.80429 91.7263 10.1692 92.8918 10.8424C94.066 11.5207 94.8998 12.4833 95.4069 13.7476C95.9284 15.0479 96.1992 16.6268 96.1992 18.5C96.1992 20.3992 95.9283 21.9901 95.4076 23.2892C94.9022 24.525 94.0704 25.4757 92.8957 26.1553C91.7283 26.8051 90.0845 27.1571 87.9138 27.1571Z" stroke="white" stroke-width="1.2"/>
<defs>
<linearGradient id="paint0_linear_107_180" x1="-0.478851" y1="22.1763" x2="28.2522" y2="22.1763" gradientUnits="userSpaceOnUse">
<stop stop-color="#0788FF"/>
<stop offset="1" stop-color="#9900FF"/>
</linearGradient>
<linearGradient id="paint1_linear_107_180" x1="3.29182" y1="3.71056" x2="24.4839" y2="3.71056" gradientUnits="userSpaceOnUse">
<stop stop-color="#0788FF"/>
<stop offset="1" stop-color="#9900FF"/>
</linearGradient>
<linearGradient id="paint2_linear_107_180" x1="10.7958" y1="28.4376" x2="11.8735" y2="28.4376" gradientUnits="userSpaceOnUse">
<stop stop-color="#0788FF"/>
<stop offset="1" stop-color="#9900FF"/>
</linearGradient>
<linearGradient id="paint3_linear_107_180" x1="13.0574" y1="29.0355" x2="14.4315" y2="29.0355" gradientUnits="userSpaceOnUse">
<stop stop-color="#0788FF"/>
<stop offset="1" stop-color="#9900FF"/>
</linearGradient>
<linearGradient id="paint4_linear_107_180" x1="15.6109" y1="29.0355" x2="16.9823" y2="29.0355" gradientUnits="userSpaceOnUse">
<stop stop-color="#0788FF"/>
<stop offset="1" stop-color="#9900FF"/>
</linearGradient>
<linearGradient id="paint5_linear_107_180" x1="8.3743" y1="11.3309" x2="11.4778" y2="11.3309" gradientUnits="userSpaceOnUse">
<stop stop-color="#0788FF"/>
<stop offset="1" stop-color="#9900FF"/>
</linearGradient>
</defs>
</svg>
